# xmcd CD database file
#
# Track frame offsets:
#	150
#	17288
#	35599
#	48277
#	63256
#	70345
#	86245
#	101599
#	119832
#	131759
#	162622
#	176135
#	186238
#	199142
#	217133
#	229323
#	241896
#	263998
#	275937
#	288994
#	315204
#
# Disc length: 4346 seconds
#
# Revision: 2
# Processed by: cddbd v1.5.2PL0 Copyright (c) Steve Scherf et al.
# Submitted via: CDex 1.51
#
DISCID=4910f815
DTITLE=The Voices Of East Harlem - Right On Be Free [2007 Remaster]
DYEAR=1970
DGENRE=Soul/R&B
TTITLE0=Right On Be Free
TTITLE1=Simple Song Of Freedom
TTITLE2=Proud Mary
TTITLE3=Music In The Air
TTITLE4=Oh Yeah
TTITLE5=For What It's Worth
TTITLE6=Let It Be Me
TTITLE7=No No No
TTITLE8=Gotta Be A Change
TTITLE9=Shaker Life
TTITLE10=Oxford Town [Single A Side] [Bonus Track]
TTITLE11=Sit Yourself Down [Single B Side] [Bonus Track]
TTITLE12=Nation Time [Previously Unreleased] [Bonus Track]
TTITLE13=I Wanna Be Free [Previously Unreleased] [Bonus Track]
TTITLE14=Hey Brother [Previously Unreleased] [Bonus Track]
TTITLE15=Love Is The Answer [Previously Unreleased] [Bonus Track]
TTITLE16=Kind Woman [Previously Unreleased] [Bonus Track]
TTITLE17=Angry [Single A Side] [Bonus Track]
TTITLE18=(We Are) New York Lightning [Single B Side] [Bonus Track]
TTITLE19=Run Shaker Life [Live] [Bonus Track]
TTITLE20=Soul To Soul [Live] [Bonus Track]
EXTD=YEAR: 1970
EXTT0=
EXTT1=
EXTT2=
EXTT3=
EXTT4=
EXTT5=
EXTT6=
EXTT7=
EXTT8=
EXTT9=
EXTT10=
EXTT11=
EXTT12=
EXTT13=
EXTT14=
EXTT15=
EXTT16=
EXTT17=
EXTT18=
EXTT19=
EXTT20=
PLAYORDER=
